<svg width="18" height="20" viewBox="0 0 18 20" fill="none" xmlns="http://www.w3.org/2000/svg">
<path d="M2 20C1.45 20 0.979002 19.804 0.587002 19.412C0.195002 19.02 -0.000664969 18.5493 1.69779e-06 18V4C1.69779e-06 3.45 0.196002 2.979 0.588002 2.587C0.980002 2.195 1.45067 1.99933 2 2H6.2C6.41667 1.4 6.77934 0.916667 7.288 0.55C7.79667 0.183333 8.36734 0 9 0C9.63334 0 10.2043 0.183333 10.713 0.55C11.2217 0.916667 11.584 1.4 11.8 2H16C16.55 2 17.021 2.196 17.413 2.588C17.805 2.98 18.0007 3.45067 18 4V18C18 18.55 17.804 19.021 17.412 19.413C17.02 19.805 16.5493 20.0007 16 20H2ZM4 16H11V14H4V16ZM4 12H14V10H4V12ZM4 8H14V6H4V8ZM9 3.25C9.21667 3.25 9.39567 3.179 9.537 3.037C9.67834 2.895 9.74934 2.716 9.75 2.5C9.75 2.28333 9.679 2.10433 9.537 1.963C9.395 1.82167 9.216 1.75067 9 1.75C8.78334 1.75 8.60434 1.821 8.463 1.963C8.32167 2.105 8.25067 2.284 8.25 2.5C8.25 2.71667 8.321 2.89567 8.463 3.037C8.605 3.17833 8.784 3.24933 9 3.25Z" fill="#747474"/>
</svg>
