<svg width="20" height="20" viewBox="0 0 20 20" fill="none" xmlns="http://www.w3.org/2000/svg">
<g clip-path="url(#clip0_319_795)">
<path d="M7.11883 1.12535C5.22043 1.78392 3.58326 3.03391 2.44778 4.69172C1.31231 6.34952 0.738377 8.32776 0.810297 10.3359C0.882216 12.3439 1.59619 14.2761 2.84736 15.8484C4.09852 17.4207 5.82092 18.5504 7.76156 19.0714C9.33488 19.4774 10.9833 19.4952 12.565 19.1234C13.9979 18.8015 15.3226 18.1131 16.4095 17.1254C17.5407 16.0661 18.3618 14.7185 18.7845 13.2275C19.2438 11.606 19.3256 9.90089 19.0235 8.24293H10.1885V11.9079H15.3052C15.2029 12.4924 14.9838 13.0503 14.6609 13.5481C14.338 14.046 13.9179 14.4736 13.4259 14.8054C12.8012 15.2188 12.0969 15.4969 11.3582 15.6218C10.6174 15.7595 9.85758 15.7595 9.1168 15.6218C8.36593 15.4667 7.65564 15.1568 7.03125 14.7118C6.02803 14.0017 5.27475 12.9928 4.87891 11.8292C4.47648 10.6437 4.47648 9.35862 4.87891 8.17317C5.16068 7.34224 5.62649 6.58568 6.24156 5.95996C6.94544 5.23076 7.83657 4.70952 8.81718 4.45344C9.7978 4.19735 10.83 4.21631 11.8005 4.50824C12.5588 4.74088 13.2521 5.14753 13.8252 5.69574C14.4022 5.12179 14.9781 4.54634 15.553 3.96942C15.8499 3.65918 16.1735 3.36379 16.4659 3.04614C15.5909 2.23198 14.5639 1.59843 13.4437 1.18176C11.4038 0.441042 9.17168 0.421136 7.11883 1.12535Z" fill="white"/>
<path d="M7.11882 1.1251C9.17151 0.420402 11.4036 0.439784 13.4437 1.18002C14.5641 1.59952 15.5907 2.23612 16.4644 3.0533C16.1676 3.37096 15.8544 3.66783 15.5516 3.97658C14.9756 4.55153 14.4002 5.1245 13.8252 5.69549C13.2521 5.14728 12.5588 4.74063 11.8005 4.50799C10.8303 4.21503 9.79815 4.19498 8.81727 4.45001C7.8364 4.70505 6.94472 5.22533 6.24007 5.95377C5.625 6.57949 5.15919 7.33604 4.87742 8.16697L1.80031 5.78455C2.90173 3.60039 4.80876 1.92967 7.11882 1.1251Z" fill="#E33629"/>
<path d="M0.983909 8.14434C1.14918 7.32462 1.42377 6.53081 1.80032 5.78418L4.87742 8.17254C4.47499 9.35799 4.47499 10.6431 4.87742 11.8286C3.85222 12.6202 2.82651 13.4158 1.80032 14.2154C0.85796 12.3396 0.570559 10.2024 0.983909 8.14434Z" fill="#F8BD00"/>
<path d="M10.1885 8.24121H19.0235C19.3256 9.89917 19.2438 11.6043 18.7845 13.2257C18.3618 14.7168 17.5407 16.0644 16.4095 17.1237C15.4165 16.3489 14.419 15.58 13.4259 14.8051C13.9183 14.473 14.3385 14.045 14.6614 13.5466C14.9843 13.0482 15.2033 12.4897 15.3052 11.9046H10.1885C10.187 10.6845 10.1885 9.46285 10.1885 8.24121Z" fill="#587DBD"/>
<path d="M1.79883 14.216C2.82503 13.4243 3.85073 12.6287 4.87594 11.8291C5.27257 12.9931 6.02693 14.0021 7.03125 14.7118C7.65758 15.1546 8.36941 15.462 9.12125 15.6143C9.86203 15.752 10.6219 15.752 11.3627 15.6143C12.1013 15.4894 12.8057 15.2113 13.4304 14.7979C14.4234 15.5727 15.4209 16.3416 16.414 17.1164C15.3273 18.1046 14.0025 18.7936 12.5695 19.1159C10.9877 19.4877 9.33934 19.4699 7.76602 19.0639C6.52167 18.7317 5.35936 18.146 4.35195 17.3436C3.28577 16.4969 2.4149 15.4301 1.79883 14.216Z" fill="#319F43"/>
</g>
<defs>
<clipPath id="clip0_319_795">
<rect width="19" height="19" fill="white" transform="translate(0.5 0.5)"/>
</clipPath>
</defs>
</svg>
