<svg width="14" height="16" viewBox="0 0 14 16" fill="none" xmlns="http://www.w3.org/2000/svg">
<path d="M1.75 15.75C1.3375 15.75 0.984251 15.603 0.690251 15.309C0.396251 15.015 0.249501 14.662 0.250001 14.25V3.75C0.250001 3.3375 0.397001 2.98425 0.691001 2.69025C0.985001 2.39625 1.338 2.2495 1.75 2.25H4.9C5.0625 1.8 5.3345 1.4375 5.716 1.1625C6.0975 0.8875 6.5255 0.75 7 0.75C7.475 0.75 7.90325 0.8875 8.28475 1.1625C8.66625 1.4375 8.938 1.8 9.1 2.25H12.25C12.6625 2.25 13.0158 2.397 13.3098 2.691C13.6038 2.985 13.7505 3.338 13.75 3.75V14.25C13.75 14.6625 13.603 15.0157 13.309 15.3097C13.015 15.6038 12.662 15.7505 12.25 15.75H1.75ZM1.75 14.25H12.25V3.75H1.75V14.25ZM3.25 12.75H8.5V11.25H3.25V12.75ZM3.25 9.75H10.75V8.25H3.25V9.75ZM3.25 6.75H10.75V5.25H3.25V6.75ZM7 3.1875C7.1625 3.1875 7.29675 3.13425 7.40275 3.02775C7.50875 2.92125 7.562 2.787 7.5625 2.625C7.5625 2.4625 7.50925 2.32825 7.40275 2.22225C7.29625 2.11625 7.162 2.063 7 2.0625C6.8375 2.0625 6.70325 2.11575 6.59725 2.22225C6.49125 2.32875 6.438 2.463 6.4375 2.625C6.4375 2.7875 6.49075 2.92175 6.59725 3.02775C6.70375 3.13375 6.838 3.187 7 3.1875Z" fill="#23272C"/>
</svg>
