<svg width="13" height="15" viewBox="0 0 13 15" fill="none" xmlns="http://www.w3.org/2000/svg">
<path fill-rule="evenodd" clip-rule="evenodd" d="M0 1.5C0 1.10218 0.158035 0.720644 0.43934 0.43934C0.720644 0.158035 1.10218 0 1.5 0L9.707 0L13 3.293V13.5C13 13.8978 12.842 14.2794 12.5607 14.5607C12.2794 14.842 11.8978 15 11.5 15H1.5C1.10218 15 0.720644 14.842 0.43934 14.5607C0.158035 14.2794 0 13.8978 0 13.5V1.5ZM2.5 6H1V11H2V9H2.5C2.89782 9 3.27936 8.84196 3.56066 8.56066C3.84196 8.27936 4 7.89782 4 7.5C4 7.10218 3.84196 6.72064 3.56066 6.43934C3.27936 6.15804 2.89782 6 2.5 6ZM6.5 6H5V11H6.5C6.89782 11 7.27936 10.842 7.56066 10.5607C7.84196 10.2794 8 9.89782 8 9.5V7.5C8 7.10218 7.84196 6.72064 7.56066 6.43934C7.27936 6.15804 6.89782 6 6.5 6ZM9 11V6H12V7H10V8H11V9H10V11H9Z" fill="#F15D5D"/>
</svg>
