<svg width="16" height="16" viewBox="0 0 16 16" fill="none" xmlns="http://www.w3.org/2000/svg">
<path d="M9.5 10.25C9.7125 10.25 9.897 10.1718 10.0535 10.0153C10.21 9.85875 10.288 9.6745 10.2875 9.4625C10.2875 9.25 10.2093 9.06575 10.0528 8.90975C9.89625 8.75375 9.712 8.6755 9.5 8.675C9.2875 8.675 9.103 8.75325 8.9465 8.90975C8.79 9.06625 8.712 9.2505 8.7125 9.4625C8.7125 9.675 8.79075 9.8595 8.94725 10.016C9.10375 10.1725 9.288 10.2505 9.5 10.25ZM8.9375 7.85H10.0625C10.0625 7.4875 10.1 7.22175 10.175 7.05275C10.25 6.88375 10.425 6.662 10.7 6.3875C11.075 6.0125 11.325 5.7095 11.45 5.4785C11.575 5.2475 11.6375 4.9755 11.6375 4.6625C11.6375 4.1 11.4405 3.64075 11.0465 3.28475C10.6525 2.92875 10.137 2.7505 9.5 2.75C8.9875 2.75 8.5405 2.89375 8.159 3.18125C7.7775 3.46875 7.512 3.85 7.3625 4.325L8.375 4.7375C8.4875 4.425 8.64075 4.1905 8.83475 4.034C9.02875 3.8775 9.2505 3.7995 9.5 3.8C9.8 3.8 10.0438 3.8845 10.2313 4.0535C10.4188 4.2225 10.5125 4.4505 10.5125 4.7375C10.5125 4.9125 10.4625 5.07825 10.3625 5.23475C10.2625 5.39125 10.0875 5.588 9.8375 5.825C9.425 6.1875 9.172 6.47175 9.0785 6.67775C8.985 6.88375 8.938 7.2745 8.9375 7.85ZM5 12.5C4.5875 12.5 4.23425 12.353 3.94025 12.059C3.64625 11.765 3.4995 11.412 3.5 11V2C3.5 1.5875 3.647 1.23425 3.941 0.940251C4.235 0.646251 4.588 0.499501 5 0.500001H14C14.4125 0.500001 14.7658 0.647001 15.0598 0.941001C15.3538 1.235 15.5005 1.588 15.5 2V11C15.5 11.4125 15.353 11.7658 15.059 12.0598C14.765 12.3538 14.412 12.5005 14 12.5H5ZM5 11H14V2H5V11ZM2 15.5C1.5875 15.5 1.23425 15.353 0.940251 15.059C0.646251 14.765 0.499501 14.412 0.500001 14V3.5H2V14H12.5V15.5H2Z" fill="#23272C"/>
</svg>
