<svg width="48" height="24" viewBox="0 0 48 24" fill="none" xmlns="http://www.w3.org/2000/svg">
<path fill-rule="evenodd" clip-rule="evenodd" d="M36.0021 0C30.9774 0 27.3373 3.76079 24.0019 8.03039C19.2051 14.1706 20.0724 12.9082 18.0053 15.6C15.8355 18.4255 13.1902 19.2 11.9824 19.2C10.0651 19.2 8.26305 18.4512 6.90969 17.0928C5.90666 16.0838 5.22457 14.8004 4.94932 13.4045C4.67408 12.0085 4.81798 10.5623 5.36292 9.24792C5.90786 7.93358 6.82945 6.8099 8.01165 6.0184C10.2535 4.26382 12.9153 4.47105 14.3379 4.46808C14.6783 2.5617 14.5421 0.859573 14.3379 0.178723C7.72226 0.178723 -0.297815 4.19574 0.00851394 12C0.00465639 13.5747 0.311964 15.1346 0.912778 16.5902C1.51359 18.0457 2.39607 19.3682 3.50949 20.4816C4.61851 21.5999 5.93857 22.4869 7.39307 23.0908C8.84757 23.6948 10.4075 24.0038 11.9824 24H12.0112C17.0239 23.988 20.6616 20.2272 23.9995 15.9576C27.3373 20.2344 30.9774 24 36.0021 24C42.6178 24 48 18.6168 48 12C48 5.38319 42.6178 0 36.0021 0ZM27.0061 11.9952C29.8568 15.744 32.8107 19.2 36.0021 19.2C39.971 19.2 43.2009 15.9696 43.2009 12C43.2009 8.03039 39.971 4.79999 36.0021 4.79999C32.8059 4.79999 29.8544 8.25119 27.0061 11.9952Z" fill="#6821A0"/>
</svg>
