<svg width="383" height="414" viewBox="0 0 383 414" fill="none" xmlns="http://www.w3.org/2000/svg">
<path d="M67.1421 355.004H102.354V403.421L97.9529 412.224H58.339C55.6981 412.224 53.9375 410.463 53.9375 407.822V394.618C53.9375 388.456 58.339 382.734 64.5012 381.853L67.1421 381.413V355.004Z" stroke="white" stroke-width="3" stroke-miterlimit="10"/>
<path d="M62.741 381.413H91.351C97.5132 381.413 102.355 384.054 102.355 390.216V394.618" stroke="white" stroke-width="3" stroke-miterlimit="10"/>
<path d="M154.733 355.004H119.521V407.822C119.521 410.463 121.281 412.224 123.922 412.224H172.339C174.98 412.224 176.741 410.463 176.741 407.822V394.618C176.741 388.456 172.339 382.734 166.177 381.853L154.733 381.413V355.004Z" stroke="white" stroke-width="3" stroke-miterlimit="10"/>
<path d="M129.645 46.0153C129.645 49.0963 127.004 51.2971 124.363 51.2971C121.282 51.2971 119.081 48.6562 119.081 46.0153C119.081 42.9342 121.722 40.7334 124.363 40.7334C127.444 40.7334 129.645 43.3743 129.645 46.0153Z" fill="white"/>
<path d="M152.532 46.0153C152.532 49.0963 149.891 51.2971 147.25 51.2971C144.169 51.2971 141.969 48.6562 141.969 46.0153C141.969 42.9342 144.609 40.7334 147.25 40.7334C149.891 40.7334 152.532 43.3743 152.532 46.0153Z" fill="white"/>
<path d="M62.7413 107.637V54.8185C62.7413 25.7683 86.5097 2 115.56 2C144.61 2 168.378 25.7683 168.378 54.8185V107.637C189.066 178.062 209.313 248.927 230 319.351C226.479 321.552 215.915 328.154 200.95 326.834C190.386 325.954 183.344 321.552 179.822 319.351C177.181 321.112 169.259 326.834 157.375 326.834C145.05 326.834 136.687 321.112 134.486 319.351C131.846 321.552 123.483 327.274 111.158 326.834C100.154 326.834 92.2317 321.992 89.5907 319.791C86.9498 321.552 79.027 326.834 67.583 326.834C56.5792 326.834 48.6564 321.992 46.0154 319.791C43.3745 321.552 35.4517 326.834 24.4479 326.834C12.5637 326.834 4.64093 321.112 2 319.351C21.3668 248.927 42.0541 178.062 62.7413 107.637Z" stroke="white" stroke-width="3" stroke-miterlimit="10"/>
<path d="M213.281 59.981C213.281 61.1397 213.079 62.2177 212.676 63.215C212.28 64.2123 211.719 65.0813 210.993 65.822C210.267 66.5553 209.391 67.131 208.364 67.549C207.345 67.967 206.212 68.176 204.965 68.176C203.718 68.176 202.582 67.967 201.555 67.549C200.528 67.131 199.648 66.5553 198.915 65.822C198.189 65.0813 197.624 64.2123 197.221 63.215C196.825 62.2177 196.627 61.1397 196.627 59.981C196.627 58.8223 196.825 57.7443 197.221 56.747C197.624 55.7497 198.189 54.8843 198.915 54.151C199.648 53.4177 200.528 52.842 201.555 52.424C202.582 52.006 203.718 51.797 204.965 51.797C206.212 51.797 207.345 52.0097 208.364 52.435C209.391 52.853 210.267 53.4287 210.993 54.162C211.719 54.8953 212.28 55.7607 212.676 56.758C213.079 57.7553 213.281 58.8297 213.281 59.981ZM209.475 59.981C209.475 59.189 209.372 58.4777 209.167 57.847C208.962 57.209 208.665 56.67 208.276 56.23C207.895 55.79 207.425 55.4527 206.868 55.218C206.311 54.9833 205.676 54.866 204.965 54.866C204.246 54.866 203.605 54.9833 203.04 55.218C202.483 55.4527 202.01 55.79 201.621 56.23C201.24 56.67 200.946 57.209 200.741 57.847C200.536 58.4777 200.433 59.189 200.433 59.981C200.433 60.7803 200.536 61.499 200.741 62.137C200.946 62.7677 201.24 63.303 201.621 63.743C202.01 64.183 202.483 64.5203 203.04 64.755C203.605 64.9823 204.246 65.096 204.965 65.096C205.676 65.096 206.311 64.9823 206.868 64.755C207.425 64.5203 207.895 64.183 208.276 63.743C208.665 63.303 208.962 62.7677 209.167 62.137C209.372 61.499 209.475 60.7803 209.475 59.981ZM218.311 64.898C218.568 65.1767 218.846 65.3747 219.147 65.492C219.448 65.6093 219.763 65.668 220.093 65.668C220.408 65.668 220.698 65.6057 220.962 65.481C221.226 65.3563 221.453 65.1583 221.644 64.887C221.842 64.6083 221.996 64.249 222.106 63.809C222.216 63.369 222.271 62.8337 222.271 62.203C222.271 61.6017 222.227 61.0957 222.139 60.685C222.051 60.2743 221.926 59.9443 221.765 59.695C221.611 59.4383 221.424 59.255 221.204 59.145C220.984 59.035 220.738 58.98 220.467 58.98C219.968 58.98 219.558 59.0717 219.235 59.255C218.912 59.4383 218.604 59.706 218.311 60.058V64.898ZM218.102 58.001C218.549 57.5243 219.055 57.1357 219.62 56.835C220.192 56.527 220.87 56.373 221.655 56.373C222.249 56.373 222.799 56.505 223.305 56.769C223.811 57.033 224.247 57.4143 224.614 57.913C224.981 58.4117 225.267 59.024 225.472 59.75C225.685 60.4687 225.791 61.2863 225.791 62.203C225.791 63.061 225.67 63.853 225.428 64.579C225.193 65.305 224.86 65.9357 224.427 66.471C224.002 67.0063 223.488 67.4243 222.887 67.725C222.293 68.0257 221.633 68.176 220.907 68.176C220.313 68.176 219.814 68.0917 219.411 67.923C219.008 67.7543 218.641 67.527 218.311 67.241V71.619H214.901V56.593H217.013C217.438 56.593 217.717 56.7837 217.849 57.165L218.102 58.001ZM230.965 64.898C231.222 65.1767 231.501 65.3747 231.801 65.492C232.102 65.6093 232.417 65.668 232.747 65.668C233.063 65.668 233.352 65.6057 233.616 65.481C233.88 65.3563 234.108 65.1583 234.298 64.887C234.496 64.6083 234.65 64.249 234.76 63.809C234.87 63.369 234.925 62.8337 234.925 62.203C234.925 61.6017 234.881 61.0957 234.793 60.685C234.705 60.2743 234.581 59.9443 234.419 59.695C234.265 59.4383 234.078 59.255 233.858 59.145C233.638 59.035 233.393 58.98 233.121 58.98C232.623 58.98 232.212 59.0717 231.889 59.255C231.567 59.4383 231.259 59.706 230.965 60.058V64.898ZM230.756 58.001C231.204 57.5243 231.71 57.1357 232.274 56.835C232.846 56.527 233.525 56.373 234.309 56.373C234.903 56.373 235.453 56.505 235.959 56.769C236.465 57.033 236.902 57.4143 237.268 57.913C237.635 58.4117 237.921 59.024 238.126 59.75C238.339 60.4687 238.445 61.2863 238.445 62.203C238.445 63.061 238.324 63.853 238.082 64.579C237.848 65.305 237.514 65.9357 237.081 66.471C236.656 67.0063 236.143 67.4243 235.541 67.725C234.947 68.0257 234.287 68.176 233.561 68.176C232.967 68.176 232.469 68.0917 232.065 67.923C231.662 67.7543 231.295 67.527 230.965 67.241V71.619H227.555V56.593H229.667C230.093 56.593 230.371 56.7837 230.503 57.165L230.756 58.001ZM247.459 59.09C247.371 59.2293 247.275 59.3283 247.173 59.387C247.077 59.4457 246.953 59.475 246.799 59.475C246.637 59.475 246.476 59.442 246.315 59.376C246.153 59.3027 245.977 59.2257 245.787 59.145C245.603 59.0643 245.394 58.991 245.16 58.925C244.925 58.8517 244.657 58.815 244.357 58.815C243.924 58.815 243.59 58.8993 243.356 59.068C243.128 59.2293 243.015 59.4567 243.015 59.75C243.015 59.9627 243.088 60.1387 243.235 60.278C243.389 60.4173 243.59 60.542 243.84 60.652C244.089 60.7547 244.371 60.8537 244.687 60.949C245.002 61.0443 245.325 61.1507 245.655 61.268C245.985 61.3853 246.307 61.5247 246.623 61.686C246.938 61.84 247.22 62.0343 247.47 62.269C247.719 62.4963 247.917 62.775 248.064 63.105C248.218 63.435 248.295 63.831 248.295 64.293C248.295 64.8577 248.192 65.3783 247.987 65.855C247.781 66.3317 247.473 66.7423 247.063 67.087C246.659 67.4317 246.157 67.6993 245.556 67.89C244.962 68.0807 244.276 68.176 243.499 68.176C243.11 68.176 242.721 68.1393 242.333 68.066C241.944 67.9927 241.566 67.8937 241.2 67.769C240.84 67.6443 240.507 67.4977 240.199 67.329C239.891 67.153 239.627 66.966 239.407 66.768L240.199 65.514C240.287 65.3673 240.397 65.2537 240.529 65.173C240.668 65.085 240.844 65.041 241.057 65.041C241.255 65.041 241.431 65.085 241.585 65.173C241.746 65.261 241.918 65.3563 242.102 65.459C242.285 65.5617 242.498 65.657 242.74 65.745C242.989 65.833 243.301 65.877 243.675 65.877C243.939 65.877 244.162 65.8513 244.346 65.8C244.529 65.7413 244.676 65.6643 244.786 65.569C244.896 65.4737 244.976 65.3673 245.028 65.25C245.079 65.1327 245.105 65.0117 245.105 64.887C245.105 64.6597 245.028 64.4727 244.874 64.326C244.72 64.1793 244.518 64.0547 244.269 63.952C244.019 63.842 243.733 63.743 243.411 63.655C243.095 63.5597 242.773 63.4533 242.443 63.336C242.113 63.2187 241.786 63.0793 241.464 62.918C241.148 62.7493 240.866 62.5403 240.617 62.291C240.367 62.0343 240.166 61.7227 240.012 61.356C239.858 60.9893 239.781 60.5457 239.781 60.025C239.781 59.541 239.872 59.0827 240.056 58.65C240.246 58.21 240.529 57.825 240.903 57.495C241.277 57.165 241.746 56.9047 242.311 56.714C242.875 56.516 243.535 56.417 244.291 56.417C244.701 56.417 245.097 56.4537 245.479 56.527C245.867 56.6003 246.23 56.703 246.568 56.835C246.905 56.967 247.213 57.1247 247.492 57.308C247.77 57.484 248.016 57.6783 248.229 57.891L247.459 59.09ZM249.545 66.273C249.545 66.009 249.592 65.7633 249.688 65.536C249.79 65.3087 249.926 65.1107 250.095 64.942C250.271 64.7733 250.476 64.6413 250.711 64.546C250.945 64.4433 251.202 64.392 251.481 64.392C251.752 64.392 252.005 64.4433 252.24 64.546C252.474 64.6413 252.68 64.7733 252.856 64.942C253.032 65.1107 253.167 65.3087 253.263 65.536C253.365 65.7633 253.417 66.009 253.417 66.273C253.417 66.537 253.365 66.7863 253.263 67.021C253.167 67.2483 253.032 67.4463 252.856 67.615C252.68 67.7837 252.474 67.9157 252.24 68.011C252.005 68.1063 251.752 68.154 251.481 68.154C251.202 68.154 250.945 68.1063 250.711 68.011C250.476 67.9157 250.271 67.7837 250.095 67.615C249.926 67.4463 249.79 67.2483 249.688 67.021C249.592 66.7863 249.545 66.537 249.545 66.273ZM254.808 66.273C254.808 66.009 254.856 65.7633 254.951 65.536C255.054 65.3087 255.19 65.1107 255.358 64.942C255.534 64.7733 255.74 64.6413 255.974 64.546C256.209 64.4433 256.466 64.392 256.744 64.392C257.016 64.392 257.269 64.4433 257.503 64.546C257.738 64.6413 257.943 64.7733 258.119 64.942C258.295 65.1107 258.431 65.3087 258.526 65.536C258.629 65.7633 258.68 66.009 258.68 66.273C258.68 66.537 258.629 66.7863 258.526 67.021C258.431 67.2483 258.295 67.4463 258.119 67.615C257.943 67.7837 257.738 67.9157 257.503 68.011C257.269 68.1063 257.016 68.154 256.744 68.154C256.466 68.154 256.209 68.1063 255.974 68.011C255.74 67.9157 255.534 67.7837 255.358 67.615C255.19 67.4463 255.054 67.2483 254.951 67.021C254.856 66.7863 254.808 66.537 254.808 66.273ZM274.877 55.229C274.767 55.405 274.649 55.537 274.525 55.625C274.407 55.713 274.253 55.757 274.063 55.757C273.894 55.757 273.711 55.7057 273.513 55.603C273.322 55.493 273.102 55.372 272.853 55.24C272.611 55.108 272.332 54.9907 272.017 54.888C271.701 54.778 271.342 54.723 270.939 54.723C270.242 54.723 269.721 54.8733 269.377 55.174C269.039 55.4673 268.871 55.867 268.871 56.373C268.871 56.6957 268.973 56.9633 269.179 57.176C269.384 57.3887 269.652 57.572 269.982 57.726C270.319 57.88 270.7 58.023 271.126 58.155C271.558 58.2797 271.998 58.4227 272.446 58.584C272.893 58.738 273.329 58.9213 273.755 59.134C274.187 59.3467 274.569 59.618 274.899 59.948C275.236 60.278 275.507 60.6813 275.713 61.158C275.918 61.6273 276.021 62.1957 276.021 62.863C276.021 63.6037 275.892 64.2967 275.636 64.942C275.379 65.5873 275.005 66.152 274.514 66.636C274.03 67.1127 273.428 67.4903 272.71 67.769C271.998 68.0403 271.188 68.176 270.279 68.176C269.78 68.176 269.27 68.1247 268.75 68.022C268.236 67.9193 267.738 67.7763 267.254 67.593C266.77 67.4023 266.315 67.1787 265.89 66.922C265.464 66.6653 265.094 66.3793 264.779 66.064L265.879 64.326C265.967 64.2013 266.08 64.0987 266.22 64.018C266.366 63.93 266.524 63.886 266.693 63.886C266.913 63.886 267.133 63.9557 267.353 64.095C267.58 64.2343 267.833 64.3883 268.112 64.557C268.398 64.7257 268.724 64.8797 269.091 65.019C269.457 65.1583 269.89 65.228 270.389 65.228C271.063 65.228 271.588 65.0813 271.962 64.788C272.336 64.4873 272.523 64.0143 272.523 63.369C272.523 62.995 272.42 62.6907 272.215 62.456C272.009 62.2213 271.738 62.027 271.401 61.873C271.071 61.719 270.693 61.5833 270.268 61.466C269.842 61.3487 269.406 61.2203 268.959 61.081C268.511 60.9343 268.075 60.7583 267.65 60.553C267.224 60.3403 266.843 60.0653 266.506 59.728C266.176 59.3833 265.908 58.958 265.703 58.452C265.497 57.9387 265.395 57.308 265.395 56.56C265.395 55.9587 265.516 55.372 265.758 54.8C266 54.228 266.355 53.7183 266.825 53.271C267.294 52.8237 267.87 52.468 268.552 52.204C269.234 51.9327 270.015 51.797 270.895 51.797C271.386 51.797 271.863 51.8373 272.325 51.918C272.794 51.9913 273.238 52.105 273.656 52.259C274.074 52.4057 274.462 52.5853 274.822 52.798C275.188 53.0033 275.515 53.238 275.801 53.502L274.877 55.229ZM284.902 60.927C284.902 60.6557 284.866 60.3917 284.792 60.135C284.726 59.8783 284.613 59.651 284.451 59.453C284.297 59.2477 284.092 59.0827 283.835 58.958C283.579 58.8333 283.267 58.771 282.9 58.771C282.255 58.771 281.749 58.958 281.382 59.332C281.016 59.6987 280.774 60.2303 280.656 60.927H284.902ZM280.612 62.907C280.722 63.8603 281.012 64.5533 281.481 64.986C281.951 65.4113 282.556 65.624 283.296 65.624C283.692 65.624 284.033 65.5763 284.319 65.481C284.605 65.3857 284.858 65.2793 285.078 65.162C285.306 65.0447 285.511 64.9383 285.694 64.843C285.885 64.7477 286.083 64.7 286.288 64.7C286.56 64.7 286.765 64.799 286.904 64.997L287.894 66.218C287.542 66.6213 287.161 66.9513 286.75 67.208C286.347 67.4573 285.929 67.6553 285.496 67.802C285.071 67.9413 284.642 68.0367 284.209 68.088C283.784 68.1467 283.377 68.176 282.988 68.176C282.189 68.176 281.437 68.0477 280.733 67.791C280.037 67.527 279.424 67.1383 278.896 66.625C278.376 66.1117 277.961 65.4737 277.653 64.711C277.353 63.9483 277.202 63.061 277.202 62.049C277.202 61.2863 277.331 60.564 277.587 59.882C277.851 59.2 278.225 58.6023 278.709 58.089C279.201 57.5757 279.791 57.1687 280.48 56.868C281.177 56.5673 281.962 56.417 282.834 56.417C283.59 56.417 284.279 56.5343 284.902 56.769C285.533 57.0037 286.072 57.3447 286.519 57.792C286.974 58.2393 287.326 58.7893 287.575 59.442C287.832 60.0873 287.96 60.8207 287.96 61.642C287.96 61.8987 287.949 62.1077 287.927 62.269C287.905 62.4303 287.865 62.5587 287.806 62.654C287.748 62.7493 287.667 62.8153 287.564 62.852C287.469 62.8887 287.344 62.907 287.19 62.907H280.612ZM292.857 58.353C293.209 57.737 293.612 57.253 294.067 56.901C294.529 56.549 295.057 56.373 295.651 56.373C296.164 56.373 296.582 56.494 296.905 56.736L296.685 59.244C296.648 59.4053 296.586 59.5153 296.498 59.574C296.417 59.6327 296.303 59.662 296.157 59.662C296.098 59.662 296.021 59.6583 295.926 59.651C295.83 59.6437 295.731 59.6363 295.629 59.629C295.526 59.6143 295.42 59.6033 295.31 59.596C295.207 59.5813 295.112 59.574 295.024 59.574C294.525 59.574 294.125 59.706 293.825 59.97C293.531 60.234 293.282 60.6007 293.077 61.07V68H289.667V56.593H291.691C291.859 56.593 291.999 56.6077 292.109 56.637C292.226 56.6663 292.321 56.714 292.395 56.78C292.475 56.8387 292.534 56.9193 292.571 57.022C292.615 57.1247 292.651 57.2493 292.681 57.396L292.857 58.353ZM308.814 56.593L304.392 68H301.29L296.868 56.593H299.706C299.948 56.593 300.15 56.6517 300.311 56.769C300.48 56.879 300.593 57.0183 300.652 57.187L302.236 62.302C302.375 62.72 302.496 63.127 302.599 63.523C302.709 63.919 302.804 64.315 302.885 64.711C303.046 63.919 303.27 63.116 303.556 62.302L305.206 57.187C305.265 57.0183 305.375 56.879 305.536 56.769C305.697 56.6517 305.888 56.593 306.108 56.593H308.814ZM316.635 60.927C316.635 60.6557 316.598 60.3917 316.525 60.135C316.459 59.8783 316.345 59.651 316.184 59.453C316.03 59.2477 315.824 59.0827 315.568 58.958C315.311 58.8333 314.999 58.771 314.633 58.771C313.987 58.771 313.481 58.958 313.115 59.332C312.748 59.6987 312.506 60.2303 312.389 60.927H316.635ZM312.345 62.907C312.455 63.8603 312.744 64.5533 313.214 64.986C313.683 65.4113 314.288 65.624 315.029 65.624C315.425 65.624 315.766 65.5763 316.052 65.481C316.338 65.3857 316.591 65.2793 316.811 65.162C317.038 65.0447 317.243 64.9383 317.427 64.843C317.617 64.7477 317.815 64.7 318.021 64.7C318.292 64.7 318.497 64.799 318.637 64.997L319.627 66.218C319.275 66.6213 318.893 66.9513 318.483 67.208C318.079 67.4573 317.661 67.6553 317.229 67.802C316.803 67.9413 316.374 68.0367 315.942 68.088C315.516 68.1467 315.109 68.176 314.721 68.176C313.921 68.176 313.17 68.0477 312.466 67.791C311.769 67.527 311.157 67.1383 310.629 66.625C310.108 66.1117 309.694 65.4737 309.386 64.711C309.085 63.9483 308.935 63.061 308.935 62.049C308.935 61.2863 309.063 60.564 309.32 59.882C309.584 59.2 309.958 58.6023 310.442 58.089C310.933 57.5757 311.523 57.1687 312.213 56.868C312.909 56.5673 313.694 56.417 314.567 56.417C315.322 56.417 316.011 56.5343 316.635 56.769C317.265 57.0037 317.804 57.3447 318.252 57.792C318.706 58.2393 319.058 58.7893 319.308 59.442C319.564 60.0873 319.693 60.8207 319.693 61.642C319.693 61.8987 319.682 62.1077 319.66 62.269C319.638 62.4303 319.597 62.5587 319.539 62.654C319.48 62.7493 319.399 62.8153 319.297 62.852C319.201 62.8887 319.077 62.907 318.923 62.907H312.345ZM324.589 58.353C324.941 57.737 325.344 57.253 325.799 56.901C326.261 56.549 326.789 56.373 327.383 56.373C327.896 56.373 328.314 56.494 328.637 56.736L328.417 59.244C328.38 59.4053 328.318 59.5153 328.23 59.574C328.149 59.6327 328.036 59.662 327.889 59.662C327.83 59.662 327.753 59.6583 327.658 59.651C327.563 59.6437 327.464 59.6363 327.361 59.629C327.258 59.6143 327.152 59.6033 327.042 59.596C326.939 59.5813 326.844 59.574 326.756 59.574C326.257 59.574 325.858 59.706 325.557 59.97C325.264 60.234 325.014 60.6007 324.809 61.07V68H321.399V56.593H323.423C323.592 56.593 323.731 56.6077 323.841 56.637C323.958 56.6663 324.054 56.714 324.127 56.78C324.208 56.8387 324.266 56.9193 324.303 57.022C324.347 57.1247 324.384 57.2493 324.413 57.396L324.589 58.353ZM341.535 60.927C341.535 60.6557 341.498 60.3917 341.425 60.135C341.359 59.8783 341.245 59.651 341.084 59.453C340.93 59.2477 340.725 59.0827 340.468 58.958C340.211 58.8333 339.9 58.771 339.533 58.771C338.888 58.771 338.382 58.958 338.015 59.332C337.648 59.6987 337.406 60.2303 337.289 60.927H341.535ZM337.245 62.907C337.355 63.8603 337.645 64.5533 338.114 64.986C338.583 65.4113 339.188 65.624 339.929 65.624C340.325 65.624 340.666 65.5763 340.952 65.481C341.238 65.3857 341.491 65.2793 341.711 65.162C341.938 65.0447 342.144 64.9383 342.327 64.843C342.518 64.7477 342.716 64.7 342.921 64.7C343.192 64.7 343.398 64.799 343.537 64.997L344.527 66.218C344.175 66.6213 343.794 66.9513 343.383 67.208C342.98 67.4573 342.562 67.6553 342.129 67.802C341.704 67.9413 341.275 68.0367 340.842 68.088C340.417 68.1467 340.01 68.176 339.621 68.176C338.822 68.176 338.07 68.0477 337.366 67.791C336.669 67.527 336.057 67.1383 335.529 66.625C335.008 66.1117 334.594 65.4737 334.286 64.711C333.985 63.9483 333.835 63.061 333.835 62.049C333.835 61.2863 333.963 60.564 334.22 59.882C334.484 59.2 334.858 58.6023 335.342 58.089C335.833 57.5757 336.424 57.1687 337.113 56.868C337.81 56.5673 338.594 56.417 339.467 56.417C340.222 56.417 340.912 56.5343 341.535 56.769C342.166 57.0037 342.705 57.3447 343.152 57.792C343.607 58.2393 343.959 58.7893 344.208 59.442C344.465 60.0873 344.593 60.8207 344.593 61.642C344.593 61.8987 344.582 62.1077 344.56 62.269C344.538 62.4303 344.498 62.5587 344.439 62.654C344.38 62.7493 344.3 62.8153 344.197 62.852C344.102 62.8887 343.977 62.907 343.823 62.907H337.245ZM349.49 58.353C349.842 57.737 350.245 57.253 350.7 56.901C351.162 56.549 351.69 56.373 352.284 56.373C352.797 56.373 353.215 56.494 353.538 56.736L353.318 59.244C353.281 59.4053 353.219 59.5153 353.131 59.574C353.05 59.6327 352.936 59.662 352.79 59.662C352.731 59.662 352.654 59.6583 352.559 59.651C352.463 59.6437 352.364 59.6363 352.262 59.629C352.159 59.6143 352.053 59.6033 351.943 59.596C351.84 59.5813 351.745 59.574 351.657 59.574C351.158 59.574 350.758 59.706 350.458 59.97C350.164 60.234 349.915 60.6007 349.71 61.07V68H346.3V56.593H348.324C348.492 56.593 348.632 56.6077 348.742 56.637C348.859 56.6663 348.954 56.714 349.028 56.78C349.108 56.8387 349.167 56.9193 349.204 57.022C349.248 57.1247 349.284 57.2493 349.314 57.396L349.49 58.353ZM357.89 58.353C358.242 57.737 358.645 57.253 359.1 56.901C359.562 56.549 360.09 56.373 360.684 56.373C361.197 56.373 361.615 56.494 361.938 56.736L361.718 59.244C361.681 59.4053 361.619 59.5153 361.531 59.574C361.45 59.6327 361.337 59.662 361.19 59.662C361.131 59.662 361.054 59.6583 360.959 59.651C360.864 59.6437 360.765 59.6363 360.662 59.629C360.559 59.6143 360.453 59.6033 360.343 59.596C360.24 59.5813 360.145 59.574 360.057 59.574C359.558 59.574 359.159 59.706 358.858 59.97C358.565 60.234 358.315 60.6007 358.11 61.07V68H354.7V56.593H356.724C356.893 56.593 357.032 56.6077 357.142 56.637C357.259 56.6663 357.355 56.714 357.428 56.78C357.509 56.8387 357.567 56.9193 357.604 57.022C357.648 57.1247 357.685 57.2493 357.714 57.396L357.89 58.353ZM368.165 56.417C369.03 56.417 369.819 56.5527 370.53 56.824C371.241 57.0953 371.85 57.484 372.356 57.99C372.869 58.496 373.265 59.112 373.544 59.838C373.83 60.5567 373.973 61.367 373.973 62.269C373.973 63.1783 373.83 63.9997 373.544 64.733C373.265 65.459 372.869 66.0787 372.356 66.592C371.85 67.098 371.241 67.4903 370.53 67.769C369.819 68.0403 369.03 68.176 368.165 68.176C367.292 68.176 366.497 68.0403 365.778 67.769C365.067 67.4903 364.451 67.098 363.93 66.592C363.417 66.0787 363.017 65.459 362.731 64.733C362.452 63.9997 362.313 63.1783 362.313 62.269C362.313 61.367 362.452 60.5567 362.731 59.838C363.017 59.112 363.417 58.496 363.93 57.99C364.451 57.484 365.067 57.0953 365.778 56.824C366.497 56.5527 367.292 56.417 368.165 56.417ZM368.165 65.646C368.95 65.646 369.525 65.371 369.892 64.821C370.266 64.2637 370.453 63.4203 370.453 62.291C370.453 61.1617 370.266 60.322 369.892 59.772C369.525 59.222 368.95 58.947 368.165 58.947C367.358 58.947 366.768 59.222 366.394 59.772C366.02 60.322 365.833 61.1617 365.833 62.291C365.833 63.4203 366.02 64.2637 366.394 64.821C366.768 65.371 367.358 65.646 368.165 65.646ZM378.88 58.353C379.232 57.737 379.635 57.253 380.09 56.901C380.552 56.549 381.08 56.373 381.674 56.373C382.187 56.373 382.605 56.494 382.928 56.736L382.708 59.244C382.671 59.4053 382.609 59.5153 382.521 59.574C382.44 59.6327 382.327 59.662 382.18 59.662C382.121 59.662 382.044 59.6583 381.949 59.651C381.854 59.6437 381.755 59.6363 381.652 59.629C381.549 59.6143 381.443 59.6033 381.333 59.596C381.23 59.5813 381.135 59.574 381.047 59.574C380.548 59.574 380.149 59.706 379.848 59.97C379.555 60.234 379.305 60.6007 379.1 61.07V68H375.69V56.593H377.714C377.883 56.593 378.022 56.6077 378.132 56.637C378.249 56.6663 378.345 56.714 378.418 56.78C378.499 56.8387 378.557 56.9193 378.594 57.022C378.638 57.1247 378.675 57.2493 378.704 57.396L378.88 58.353Z" fill="white"/>
</svg>
